# xmcd
#
# Track frame offsets: 
#        150
#        14113
#        26325
#        40095
#        51729
#        63477
#        74591
#        86919
#        101067
#        113463
#        126955
#        140055
#        155497
#        169503
#        183848
#        198345
#        212310
#        225895
#        239924
#        252541
#        266258
#        279969
#        295712
#        309368
#        322433
#
# Disc length: 4470 seconds
#
# Revision: 0
# Processed by: cddbd v1.5.2PL0 Copyright (c) Steve Scherf et al.
# Submitted via: ExactAudioCopy v0.99pb5
#
DISCID=74117419
DTITLE=Lonnie Johnson - A Life in Music Selected Sides 1925-1953, Disc
DTITLE=1
DYEAR=2009
DGENRE=Blues
TTITLE0=Won't Don't Blues
TTITLE1=Mr Johnson's Blues
TTITLE2=Falling Rain Blues
TTITLE3=No Good Blues
TTITLE4=Newport Blues
TTITLE5=Love Story Blues
TTITLE6=Nile of Genago
TTITLE7=To Do This You Gotta Know How
TTITLE8=South Bound Water
TTITLE9=I Done Told You
TTITLE10=Steppin' on the Blues
TTITLE11=Four Hands Are Better Than Two
TTITLE12=I Love You Mary Lou
TTITLE13=Woke Up with the Blues in My Fingers
TTITLE14=Stay Out of Walnut Street Alley
TTITLE15=St. Louis Cyclone Blues
TTITLE16=6/88 Glide
TTITLE17=Life Saver Blues
TTITLE18=Untitled Instrumental
TTITLE19=I'm Not Rough
TTITLE20=Hotter Than That
TTITLE21=Savoy Blues
TTITLE22=Playing with the Strings
TTITLE23=Stompin' 'Em Along Slow
TTITLE24=Away Down in the Alley Blues
EXTD=
EXTT0=
EXTT1=
EXTT2=
EXTT3=
EXTT4=
EXTT5=
EXTT6=
EXTT7=
EXTT8=
EXTT9=
EXTT10=
EXTT11=
EXTT12=
EXTT13=
EXTT14=
EXTT15=
EXTT16=
EXTT17=
EXTT18=
EXTT19=
EXTT20=
EXTT21=
EXTT22=
EXTT23=
EXTT24=
PLAYORDER=
